HIERARCHY
ROOT hip
{
  OFFSET 0 0 0
  CHANNELS 6 Xposition Yposition Zposition Zrotation Yrotation Xrotation
  JOINT abdomen
  {
    OFFSET 0 20.6881 -0.73152
    CHANNELS 3 Zrotation Xrotation Yrotation
    JOINT chest
    {
      OFFSET 0 11.7043 -0.48768
      CHANNELS 3 Zrotation Xrotation Yrotation
      JOINT neck
      {
        OFFSET 0 22.1894 -2.19456
        CHANNELS 3 Zrotation Xrotation Yrotation
        JOINT head
        {
          OFFSET -0.24384 7.07133 1.2192
          CHANNELS 3 Zrotation Xrotation Yrotation
          JOINT leftEye
          {
            OFFSET 4.14528 8.04674 8.04672
            CHANNELS 3 Zrotation Xrotation Yrotation
            End Site
            {
              OFFSET 1 0 0
            }
          }
          JOINT rightEye
          {
            OFFSET -3.6576 8.04674 8.04672
            CHANNELS 3 Zrotation Xrotation Yrotation
            End Site
            {
              OFFSET 1 0 0
            }
          }
        }
      }
      JOINT rCollar
      {
        OFFSET -2.68224 19.2634 -4.8768
        CHANNELS 3 Zrotation Xrotation Yrotation
        JOINT rShldr
        {
          OFFSET -8.77824 -1.95073 1.46304
          CHANNELS 3 Zrotation Xrotation Yrotation
          JOINT rForeArm
          {
            OFFSET -28.1742 -1.7115 0.48768
            CHANNELS 3 Zrotation Xrotation Yrotation
            JOINT rHand
            {
              OFFSET -22.5879 0.773209 7.07136
              CHANNELS 3 Zrotation Xrotation Yrotation
              JOINT rThumb1
              {
                OFFSET -1.2192 -0.487915 3.41376
                CHANNELS 3 Zrotation Xrotation Yrotation
                JOINT rThumb2
                {
                  OFFSET -3.37035 -0.52449 3.41376
                  CHANNELS 3 Zrotation Xrotation Yrotation
                  End Site
                  {
                    OFFSET -1.78271 -1.18214 1.43049
                  }
                }
              }
              JOINT rIndex1
              {
                OFFSET -7.75947 0.938293 5.60832
                CHANNELS 3 Zrotation Xrotation Yrotation
                JOINT rIndex2
                {
                  OFFSET -2.54057 -0.884171 1.56538
                  CHANNELS 3 Zrotation Xrotation Yrotation
                  End Site
                  {
                    OFFSET -1.62519 -0.234802 1.16502
                  }
                }
              }
              JOINT rMid1
              {
                OFFSET -8.24714 1.18213 3.41376
                CHANNELS 3 Zrotation Xrotation Yrotation
                JOINT rMid2
                {
                  OFFSET -3.10165 -0.590103 1.0647
                  CHANNELS 3 Zrotation Xrotation Yrotation
                  End Site
                  {
                    OFFSET -2.48547 -0.328903 0.83742
                  }
                }
              }
              JOINT rRing1
              {
                OFFSET -8.82822 0.546677 1.51678
                CHANNELS 3 Zrotation Xrotation Yrotation
                JOINT rRing2
                {
                  OFFSET -2.60934 -0.819778 -0.0198488
                  CHANNELS 3 Zrotation Xrotation Yrotation
                  End Site
                  {
                    OFFSET -2.33842 -0.294052 0.168128
                  }
                }
              }
              JOINT rPinky1
              {
                OFFSET -8.27202 -0.0477905 -0.4584
                CHANNELS 3 Zrotation Xrotation Yrotation
                JOINT rPinky2
                {
                  OFFSET -1.82734 -0.647385 -0.700984
                  CHANNELS 3 Zrotation Xrotation Yrotation
                  End Site
                  {
                    OFFSET -1.69225 -0.51767 -0.607171
                  }
                }
              }
            }
          }
        }
      }
      JOINT lCollar
      {
        OFFSET 2.68224 19.2634 -4.8768
        CHANNELS 3 Zrotation Xrotation Yrotation
        JOINT lShldr
        {
          OFFSET 8.77824 -1.95073 1.46304
          CHANNELS 3 Zrotation Xrotation Yrotation
          JOINT lForeArm
          {
            OFFSET 28.1742 -1.7115 0.48768
            CHANNELS 3 Zrotation Xrotation Yrotation
            JOINT lHand
            {
              OFFSET 22.5879 0.773209 7.07136
              CHANNELS 3 Zrotation Xrotation Yrotation
              JOINT lThumb1
              {
                OFFSET 1.2192 -0.487915 3.41376
                CHANNELS 3 Zrotation Xrotation Yrotation
                JOINT lThumb2
                {
                  OFFSET 3.37035 -0.52449 3.41376
                  CHANNELS 3 Zrotation Xrotation Yrotation
                  End Site
                  {
                    OFFSET 1.78271 -1.18214 1.43049
                  }
                }
              }
              JOINT lIndex1
              {
                OFFSET 7.75947 0.938293 5.60832
                CHANNELS 3 Zrotation Xrotation Yrotation
                JOINT lIndex2
                {
                  OFFSET 2.54057 -0.884171 1.56538
                  CHANNELS 3 Zrotation Xrotation Yrotation
                  End Site
                  {
                    OFFSET 1.62519 -0.234802 1.16502
                  }
                }
              }
              JOINT lMid1
              {
                OFFSET 8.24714 1.18213 3.41376
                CHANNELS 3 Zrotation Xrotation Yrotation
                JOINT lMid2
                {
                  OFFSET 3.10165 -0.590103 1.0647
                  CHANNELS 3 Zrotation Xrotation Yrotation
                  End Site
                  {
                    OFFSET 2.48547 -0.328903 0.83742
                  }
                }
              }
              JOINT lRing1
              {
                OFFSET 8.82822 0.546677 1.51678
                CHANNELS 3 Zrotation Xrotation Yrotation
                JOINT lRing2
                {
                  OFFSET 2.60934 -0.819778 -0.0198488
                  CHANNELS 3 Zrotation Xrotation Yrotation
                  End Site
                  {
                    OFFSET 2.33842 -0.294052 0.168128
                  }
                }
              }
              JOINT lPinky1
              {
                OFFSET 8.27202 -0.0477905 -0.4584
                CHANNELS 3 Zrotation Xrotation Yrotation
                JOINT lPinky2
                {
                  OFFSET 1.82734 -0.647385 -0.700984
                  CHANNELS 3 Zrotation Xrotation Yrotation
                  End Site
                  {
                    OFFSET 1.69225 -0.51767 -0.607171
                  }
                }
              }
            }
          }
        }
      }
    }
  }
  JOINT rButtock
  {
    OFFSET -8.77824 4.35084 1.2192
    CHANNELS 3 Zrotation Xrotation Yrotation
    JOINT rThigh
    {
      OFFSET 0 -1.70687 -2.19456
      CHANNELS 3 Zrotation Xrotation Yrotation
      JOINT rShin
      {
        OFFSET 0 -36.8199 0.73152
        CHANNELS 3 Zrotation Xrotation Yrotation
        JOINT rFoot
        {
          OFFSET 0.73152 -45.1104 -5.12064
          CHANNELS 3 Zrotation Xrotation Yrotation
          End Site
          {
            OFFSET -1.1221 -3.69964 12.103
          }
        }
      }
    }
  }
  JOINT lButtock
  {
    OFFSET 8.77824 4.35084 1.2192
    CHANNELS 3 Zrotation Xrotation Yrotation
    JOINT lThigh
    {
      OFFSET 0 -1.70687 -2.19456
      CHANNELS 3 Zrotation Xrotation Yrotation
      JOINT lShin
      {
        OFFSET 0 -36.8199 0.73152
        CHANNELS 3 Zrotation Xrotation Yrotation
        JOINT lFoot
        {
          OFFSET -0.73152 -45.1104 -5.12064
          CHANNELS 3 Zrotation Xrotation Yrotation
          End Site
          {
            OFFSET 1.1221 -3.69964 12.103
          }
        }
      }
    }
  }
}
MOTION
Frames:	5
Frame Time:	0.00833333
22.9626 85.0697 -107.43 0.0 0.0 0.0 0.202514 -0.000639075 0.00577304 0.0558295 -0.000931041 0.00967164 3.4893e-15 0.0 1.553e-17 1.05045e-14 3.18055e-15 6.52262e-17 -0.0 0.0 0.0 -0.0 0.0 0.0 1.78778e-15 -2.71776e-18 9.93923e-17 3.89463e-14 -8.69683e-17 1.39149e-15 6.3795e-13 -1.93815e-13 -1.59028e-14 7.28701e-12 1.71328e-13 7.95139e-14 1.71916e-11 -5.08263e-14 1.33583e-13 2.96797e-11 -9.22361e-14 2.2741e-13 1.71977e-11 -5.04913e-14 1.39944e-13 7.73091 5.47488 0.417314 1.71931e-11 -5.04913e-14 1.36764e-13 2.90554 0.965183 0.102902 1.72031e-11 -5.06901e-14 1.36764e-13 10.2786 0.731801 0.0259123 1.71897e-11 -5.08889e-14 1.43125e-13 2.22167 -0.733487 -0.20892 1.69107e-15 -2.71776e-18 -9.93923e-17 3.46246e-14 -1.80149e-16 -5.96354e-16 6.33875e-13 1.89641e-13 -3.18055e-15 7.29076e-12 -2.00226e-13 6.99722e-14 1.71944e-11 -2.30469e-14 1.24042e-13 2.97048e-11 -4.13472e-14 2.42517e-13 1.71885e-11 -2.22639e-14 1.39944e-13 -7.73091 5.47488 -0.417314 1.71932e-11 -2.28602e-14 1.33583e-13 -2.90554 0.965183 -0.102902 1.71801e-11 -2.26615e-14 1.36764e-13 -10.2786 0.731801 -0.0259123 1.71994e-11 -2.26615e-14 1.30403e-13 -2.22167 -0.733487 0.20892 -2.03217e-16 0.0 -3.88251e-19 0.677489 -3.60113 -0.0536494 -0.00454019 0.970123 -0.0387448 -0.524694 2.63023 0.113977 2.03217e-16 0.0 3.88251e-19 -0.369388 -2.81566 0.0342632 0.00682576 -0.452698 0.0599317 0.522484 3.26753 -0.126812
22.3373 83.0421 -109.683 -0.9621 -5.6706 8.0381 0.130386 -1.5036 0.152785 0.898378 0.591474 0.03543 -1.01858 1.73964 -0.502119 1.4368 -6.92144 -0.514884 -0.0 0.0 0.0 -0.0 0.0 0.0 -4.80012e-15 3.81765e-15 6.11146e-15 21.9441 9.75194 -0.871729 -5.33864 -2.69986 8.0193 0.02448 3.47181 0.484701 1.23494e-10 -1.1806e-10 4.04605e-11 2.13729e-10 -2.03422e-10 6.84543e-11 1.23498e-10 -1.18058e-10 4.04661e-11 7.73091 5.47488 0.417314 1.23493e-10 -1.18059e-10 4.04645e-11 2.90554 0.965183 0.102902 1.23502e-10 -1.18059e-10 4.04642e-11 10.2786 0.731801 0.0259123 1.2349e-10 -1.18059e-10 4.04709e-11 2.22167 -0.733487 -0.20892 -4.86223e-15 3.81931e-15 5.93869e-15 -23.1148 10.5151 0.532143 5.93006 -3.15315 -8.7098 -0.0053726 -1.62613 0.228205 6.01129e-11 8.97897e-11 1.60709e-10 1.03134e-10 1.54425e-10 2.78588e-10 6.01048e-11 8.97882e-11 1.60724e-10 -7.73091 5.47488 -0.417314 6.01116e-11 8.97884e-11 1.60716e-10 -2.90554 0.965183 -0.102902 6.01e-11 8.97883e-11 1.60718e-10 -10.2786 0.731801 -0.0259123 6.01187e-11 8.97888e-11 1.60712e-10 -2.22167 -0.733487 0.20892 -2.03217e-16 0.0 -3.88251e-19 0.603087 -9.85637 1.22882 0.0229669 10.645 0.134248 -0.925591 -1.90921 -3.22347 2.03217e-16 0.0 3.88251e-19 -0.224066 -8.87407 0.581159 -0.0327031 9.41975 -0.126286 0.923296 -2.49626 2.99739
22.3306 83.0418 -109.684 -0.9709 -5.7487 8.0415 0.0616819 -3.09415 0.310311 1.78957 1.22363 0.0630142 -2.06202 3.57992 -1.03632 2.81444 -14.2369 -1.08902 -0.0 0.0 0.0 -0.0 0.0 0.0 -1.22905e-14 1.05825e-14 1.22967e-14 45.4832 20.053 -1.87826 -10.1705 -5.37905 16.5557 -0.0139567 7.13908 1.00276 2.54041e-10 -2.5612e-10 8.42748e-11 4.39693e-10 -4.41228e-10 1.42408e-10 2.54044e-10 -2.56117e-10 8.42797e-11 7.73091 5.47488 0.417314 2.54039e-10 -2.56119e-10 8.42797e-11 2.90554 0.965183 0.102902 2.54046e-10 -2.56119e-10 8.42792e-11 10.2786 0.731801 0.0259123 2.54035e-10 -2.56119e-10 8.42861e-11 2.22167 -0.733487 -0.20892 -1.23161e-14 1.0586e-14 1.21507e-14 -47.7753 21.6329 1.14882 11.1675 -6.24264 -17.9991 0.00305071 -3.34272 0.469729 1.12575e-10 2.02479e-10 3.43672e-10 1.9302e-10 3.48398e-10 5.95715e-10 1.12565e-10 2.02475e-10 3.43687e-10 -7.73091 5.47488 -0.417314 1.12574e-10 2.02476e-10 3.43676e-10 -2.90554 0.965183 -0.102902 1.12564e-10 2.02475e-10 3.43677e-10 -10.2786 0.731801 -0.0259123 1.12582e-10 2.02476e-10 3.43671e-10 -2.22167 -0.733487 0.20892 -2.03217e-16 0.0 -3.88251e-19 0.841768 -16.453 2.66106 -0.0153645 20.8722 0.334269 -1.92818 -6.66182 -6.8058 2.03217e-16 0.0 3.88251e-19 0.0596367 -15.276 1.18692 -0.00107201 19.8571 -0.339831 2.0347 -8.5444 6.36223
22.3402 83.0484 -109.663 -0.9658 -5.6061 7.9353 0.0093316 -4.50939 0.44804 2.58188 1.77628 0.0869829 -2.96394 5.21731 -1.51193 3.91522 -20.7574 -1.63986 -0.0 0.0 0.0 -0.0 0.0 0.0 -1.79759e-14 1.14584e-14 1.81356e-14 66.8326 29.2267 -2.95369 -13.8067 -7.46627 24.2496 -0.105273 10.4124 1.47574 3.36097e-10 -3.54077e-10 1.21114e-10 5.81827e-10 -6.10082e-10 2.04908e-10 3.36099e-10 -3.54073e-10 1.21118e-10 7.73091 5.47488 0.417314 3.36094e-10 -3.54075e-10 1.2112e-10 2.90554 0.965183 0.102902 3.361e-10 -3.54075e-10 1.21119e-10 10.2786 0.731801 0.0259123 3.3609e-10 -3.54076e-10 1.21126e-10 2.22167 -0.733487 -0.20892 -1.79688e-14 1.14634e-14 1.80149e-14 -70.0164 31.5335 1.84164 14.9983 -8.58672 -26.408 0.0228619 -4.87807 0.686826 1.4595e-10 2.69415e-10 4.81879e-10 2.49993e-10 4.63357e-10 8.3528e-10 1.45937e-10 2.69409e-10 4.81893e-10 -7.73091 5.47488 -0.417314 1.45948e-10 2.69411e-10 4.81881e-10 -2.90554 0.965183 -0.102902 1.4594e-10 2.6941e-10 4.8188e-10 -10.2786 0.731801 -0.0259123 1.45957e-10 2.69412e-10 4.81875e-10 -2.22167 -0.733487 0.20892 -2.03217e-16 0.0 -3.88251e-19 1.35408 -22.3233 4.04255 -0.119505 29.9938 0.546478 -3.32753 -10.8316 -10.074 2.03217e-16 0.0 3.88251e-19 0.435581 -20.9831 1.77169 0.102645 29.1635 -0.56527 3.645 -13.8485 9.51591
22.3155 83.0418 -109.687 -1.0171 -5.8418 8.0518 -0.0190174 -5.48646 0.535066 3.12816 2.13014 0.101877 -3.57763 6.34907 -1.83566 4.6156 -25.2969 -2.04042 -0.0 0.0 0.0 -0.0 0.0 0.0 -1.91487e-14 -2.38813e-15 2.31087e-14 81.9758 35.6088 -3.88774 -15.991 -8.6789 29.6538 -0.202121 12.7038 1.81556 2.96927e-10 -3.51776e-10 1.40517e-10 5.14386e-10 -6.06557e-10 2.38774e-10 2.96927e-10 -3.51771e-10 1.4052e-10 7.73091 5.47488 0.417314 2.96922e-10 -3.51773e-10 1.40523e-10 2.90554 0.965183 0.102902 2.96928e-10 -3.51773e-10 1.40522e-10 10.2786 0.731801 0.0259123 2.96919e-10 -3.51773e-10 1.4053e-10 2.22167 -0.733487 -0.20892 -1.91187e-14 -2.38231e-15 2.30093e-14 -85.7296 38.4014 2.50634 17.2462 -9.89856 -32.3502 0.043774 -5.96061 0.840774 1.31605e-10 2.21971e-10 5.08195e-10 2.24687e-10 3.80782e-10 8.80942e-10 1.31592e-10 2.21964e-10 5.08208e-10 -7.73091 5.47488 -0.417314 1.31603e-10 2.21965e-10 5.08195e-10 -2.90554 0.965183 -0.102902 1.31596e-10 2.21964e-10 5.08194e-10 -10.2786 0.731801 -0.0259123 1.31613e-10 2.21967e-10 5.08189e-10 -2.22167 -0.733487 0.20892 -2.03217e-16 0.0 -3.88251e-19 1.89129 -26.4187 5.07148 -0.242428 36.3526 0.727185 -4.57872 -13.7028 -12.3712 2.03217e-16 0.0 3.88251e-19 0.774536 -24.96 2.21645 0.228908 35.644 -0.756728 5.13727 -17.4663 11.8583
